HIERARCHY
ROOT hip
{
  OFFSET 0 0 0
  CHANNELS 6 Xposition Yposition Zposition Zrotation Yrotation Xrotation
  JOINT abdomen
  {
    OFFSET 0 20.6881 -0.73152
    CHANNELS 3 Zrotation Xrotation Yrotation
    JOINT chest
    {
      OFFSET 0 11.7043 -0.48768
      CHANNELS 3 Zrotation Xrotation Yrotation
      JOINT neck
      {
        OFFSET 0 22.1894 -2.19456
        CHANNELS 3 Zrotation Xrotation Yrotation
        JOINT head
        {
          OFFSET -0.24384 7.07133 1.2192
          CHANNELS 3 Zrotation Xrotation Yrotation
          JOINT leftEye
          {
            OFFSET 4.14528 8.04674 8.04672
            CHANNELS 3 Zrotation Xrotation Yrotation
            End Site
            {
              OFFSET 1 0 0
            }
          }
          JOINT rightEye
          {
            OFFSET -3.6576 8.04674 8.04672
            CHANNELS 3 Zrotation Xrotation Yrotation
            End Site
            {
              OFFSET 1 0 0
            }
          }
        }
      }
      JOINT rCollar
      {
        OFFSET -2.68224 19.2634 -4.8768
        CHANNELS 3 Zrotation Xrotation Yrotation
        JOINT rShldr
        {
          OFFSET -8.77824 -1.95073 1.46304
          CHANNELS 3 Zrotation Xrotation Yrotation
          JOINT rForeArm
          {
            OFFSET -28.1742 -1.7115 0.48768
            CHANNELS 3 Zrotation Xrotation Yrotation
            JOINT rHand
            {
              OFFSET -22.5879 0.773209 7.07136
              CHANNELS 3 Zrotation Xrotation Yrotation
              JOINT rThumb1
              {
                OFFSET -1.2192 -0.487915 3.41376
                CHANNELS 3 Zrotation Xrotation Yrotation
                JOINT rThumb2
                {
                  OFFSET -3.37035 -0.52449 3.41376
                  CHANNELS 3 Zrotation Xrotation Yrotation
                  End Site
                  {
                    OFFSET -1.78271 -1.18214 1.43049
                  }
                }
              }
              JOINT rIndex1
              {
                OFFSET -7.75947 0.938293 5.60832
                CHANNELS 3 Zrotation Xrotation Yrotation
                JOINT rIndex2
                {
                  OFFSET -2.54057 -0.884171 1.56538
                  CHANNELS 3 Zrotation Xrotation Yrotation
                  End Site
                  {
                    OFFSET -1.62519 -0.234802 1.16502
                  }
                }
              }
              JOINT rMid1
              {
                OFFSET -8.24714 1.18213 3.41376
                CHANNELS 3 Zrotation Xrotation Yrotation
                JOINT rMid2
                {
                  OFFSET -3.10165 -0.590103 1.0647
                  CHANNELS 3 Zrotation Xrotation Yrotation
                  End Site
                  {
                    OFFSET -2.48547 -0.328903 0.83742
                  }
                }
              }
              JOINT rRing1
              {
                OFFSET -8.82822 0.546677 1.51678
                CHANNELS 3 Zrotation Xrotation Yrotation
                JOINT rRing2
                {
                  OFFSET -2.60934 -0.819778 -0.0198488
                  CHANNELS 3 Zrotation Xrotation Yrotation
                  End Site
                  {
                    OFFSET -2.33842 -0.294052 0.168128
                  }
                }
              }
              JOINT rPinky1
              {
                OFFSET -8.27202 -0.0477905 -0.4584
                CHANNELS 3 Zrotation Xrotation Yrotation
                JOINT rPinky2
                {
                  OFFSET -1.82734 -0.647385 -0.700984
                  CHANNELS 3 Zrotation Xrotation Yrotation
                  End Site
                  {
                    OFFSET -1.69225 -0.51767 -0.607171
                  }
                }
              }
            }
          }
        }
      }
      JOINT lCollar
      {
        OFFSET 2.68224 19.2634 -4.8768
        CHANNELS 3 Zrotation Xrotation Yrotation
        JOINT lShldr
        {
          OFFSET 8.77824 -1.95073 1.46304
          CHANNELS 3 Zrotation Xrotation Yrotation
          JOINT lForeArm
          {
            OFFSET 28.1742 -1.7115 0.48768
            CHANNELS 3 Zrotation Xrotation Yrotation
            JOINT lHand
            {
              OFFSET 22.5879 0.773209 7.07136
              CHANNELS 3 Zrotation Xrotation Yrotation
              JOINT lThumb1
              {
                OFFSET 1.2192 -0.487915 3.41376
                CHANNELS 3 Zrotation Xrotation Yrotation
                JOINT lThumb2
                {
                  OFFSET 3.37035 -0.52449 3.41376
                  CHANNELS 3 Zrotation Xrotation Yrotation
                  End Site
                  {
                    OFFSET 1.78271 -1.18214 1.43049
                  }
                }
              }
              JOINT lIndex1
              {
                OFFSET 7.75947 0.938293 5.60832
                CHANNELS 3 Zrotation Xrotation Yrotation
                JOINT lIndex2
                {
                  OFFSET 2.54057 -0.884171 1.56538
                  CHANNELS 3 Zrotation Xrotation Yrotation
                  End Site
                  {
                    OFFSET 1.62519 -0.234802 1.16502
                  }
                }
              }
              JOINT lMid1
              {
                OFFSET 8.24714 1.18213 3.41376
                CHANNELS 3 Zrotation Xrotation Yrotation
                JOINT lMid2
                {
                  OFFSET 3.10165 -0.590103 1.0647
                  CHANNELS 3 Zrotation Xrotation Yrotation
                  End Site
                  {
                    OFFSET 2.48547 -0.328903 0.83742
                  }
                }
              }
              JOINT lRing1
              {
                OFFSET 8.82822 0.546677 1.51678
                CHANNELS 3 Zrotation Xrotation Yrotation
                JOINT lRing2
                {
                  OFFSET 2.60934 -0.819778 -0.0198488
                  CHANNELS 3 Zrotation Xrotation Yrotation
                  End Site
                  {
                    OFFSET 2.33842 -0.294052 0.168128
                  }
                }
              }
              JOINT lPinky1
              {
                OFFSET 8.27202 -0.0477905 -0.4584
                CHANNELS 3 Zrotation Xrotation Yrotation
                JOINT lPinky2
                {
                  OFFSET 1.82734 -0.647385 -0.700984
                  CHANNELS 3 Zrotation Xrotation Yrotation
                  End Site
                  {
                    OFFSET 1.69225 -0.51767 -0.607171
                  }
                }
              }
            }
          }
        }
      }
    }
  }
  JOINT rButtock
  {
    OFFSET -8.77824 4.35084 1.2192
    CHANNELS 3 Zrotation Xrotation Yrotation
    JOINT rThigh
    {
      OFFSET 0 -1.70687 -2.19456
      CHANNELS 3 Zrotation Xrotation Yrotation
      JOINT rShin
      {
        OFFSET 0 -36.8199 0.73152
        CHANNELS 3 Zrotation Xrotation Yrotation
        JOINT rFoot
        {
          OFFSET 0.73152 -45.1104 -5.12064
          CHANNELS 3 Zrotation Xrotation Yrotation
          End Site
          {
            OFFSET -1.1221 -3.69964 12.103
          }
        }
      }
    }
  }
  JOINT lButtock
  {
    OFFSET 8.77824 4.35084 1.2192
    CHANNELS 3 Zrotation Xrotation Yrotation
    JOINT lThigh
    {
      OFFSET 0 -1.70687 -2.19456
      CHANNELS 3 Zrotation Xrotation Yrotation
      JOINT lShin
      {
        OFFSET 0 -36.8199 0.73152
        CHANNELS 3 Zrotation Xrotation Yrotation
        JOINT lFoot
        {
          OFFSET -0.73152 -45.1104 -5.12064
          CHANNELS 3 Zrotation Xrotation Yrotation
          End Site
          {
            OFFSET 1.1221 -3.69964 12.103
          }
        }
      }
    }
  }
}
MOTION
Frames:	6
Frame Time:	0.03333
0.0 0.0 0.0 0.0 0.0 0.0 0.0 0.0 0.0 0.0 0.0 0.0 0.0 0.0 0.0 0.0 0.0 0.0 0.0 0.0 0.0 0.0 0.0 0.0 0.0 0.0 0.0 0.0 0.0 0.0 0.0 0.0 0.0 0.0 0.0 0.0 0.0 0.0 0.0 0.0 0.0 0.0 0.0 0.0 0.0 0.0 0.0 0.0 0.0 0.0 0.0 0.0 0.0 0.0 0.0 0.0 0.0 0.0 0.0 0.0 0.0 0.0 0.0 0.0 0.0 0.0 0.0 0.0 0.0 0.0 0.0 0.0 0.0 0.0 0.0 0.0 0.0 0.0 0.0 0.0 0.0 0.0 0.0 0.0 0.0 0.0 0.0 0.0 0.0 0.0 0.0 0.0 0.0 0.0 0.0 0.0 0.0 0.0 0.0 0.0 0.0 0.0 0.0 0.0 0.0 0.0 0.0 0.0 0.0 0.0 0.0 0.0 0.0 0.0 0.0 0.0 0.0 0.0 0.0 0.0 0.0 0.0 0.0 0.0 0.0 0.0 0.0 0.0 0.0 0.0 0.0 0.0
-0.4516 59.241200000000006 0.5864 -41.332033 -71.049589 32.604201 10.919804 16.415929 101.250365 -5.892714 -1.219884 -81.652403 -9.579477 19.083071 -47.534473 29.362985 -7.066207 54.188871 0.001626 -0.0 -0.003081 -0.003286 -0.0 0.000887 -142.973558 39.431405 147.389548 94.337599 -38.405033 111.312696 -16.038534 -16.659869 41.974681 -1.747685 17.183744 1.637862 -169.14571 -6.826411 89.91619 -126.632484 11.384984 60.904796 -173.384808 -52.451384 119.983515 -179.965023 -49.298865 111.026983 -158.521608 -0.192217 142.145047 10.004085 -20.327656 -1.141478 -145.11972 0.26793 -179.21204 11.797093 26.401439 -5.992859 -146.183016 15.33365 -142.709367 -141.671445 -3.981069 -137.235706 155.515694 -3.589616 -161.854526 55.005566 -1.900049 4.090425 -17.469734 5.245166 65.003714 -166.284521 -17.699122 -145.011481 -17.491486 -17.281855 0.031067 3.364304 -3.633324 9.44475 -88.792398 -75.498842 -40.050907 151.199462 -5.882826 -115.564821 160.671962 -6.667936 -143.245611 -3.159689 0.179212 -0.383013 74.84017 72.961876 -92.827632 -5.107873 28.347534 0.716617 87.577317 -50.209486 85.929502 -2.364247 -2.676292 1.902347 179.983117 75.749092 0.014477 122.095856 76.845103 -33.024723 -48.662137 -3.344967 37.9595 144.811603 -3.184213 -6.487952 0.0 0.000549 -0.001346 63.667494 -45.210234 70.645919 38.52783 76.328734 -124.726518 153.49912 -13.028102 -95.070068
-0.6414000000000001 59.2283 0.8252 -41.461814 -71.251445 32.808505 15.810688 17.149432 -80.657503 5.923349 -3.438855 99.397446 -11.198754 25.186902 -82.974567 34.571637 11.442395 85.103393 -0.00295 0.0 -0.000943 -0.002173 -0.0 0.002534 0.118639 -0.713956 -0.158369 -109.922965 -14.599969 -176.460453 6.928529 0.38229 -82.431344 160.416352 -31.29488 141.048864 11.110394 -11.091941 -0.638578 -153.00796 -71.589539 129.507777 2.326612 -3.86745 -1.260539 2.753824 12.634678 2.269769 5.893381 -18.351976 -2.542753 -114.336466 59.295107 104.669714 -0.001199 -0.018555 -0.005806 6.914395 29.712218 4.678779 12.509635 42.442303 10.45007 -129.30718 -29.04926 -126.765118 155.538402 -3.733336 -161.884738 -133.659576 -24.486301 176.191073 -165.712576 18.411436 -121.430919 -167.709587 -13.68066 -145.866008 168.136653 -5.815073 -89.871997 177.269053 -14.31103 -91.16773 83.73325 42.330496 -69.989706 67.301105 52.340784 -46.692918 -68.984151 -80.153909 -40.577214 164.209257 -6.980107 -143.376014 0.000918 0.063807 -0.019862 -10.285094 0.619828 -0.011082 1.206117 -3.04724 1.115116 152.097927 28.844365 147.161749 179.993896 75.751431 0.005023 113.895699 76.422042 66.70007 -3.249289 52.46363 -99.211968 160.658806 18.751207 -51.837178 -179.990344 75.749943 -0.006607 -138.881261 6.402732 -82.719943 -84.683175 18.45598 -163.771029 1.66583 50.927771 -104.314685
-0.7719 59.194500000000005 1.043 -41.479754 -71.255221 33.086468 11.0952 17.222916 70.636975 -5.595837 -4.399757 -51.217997 2.539991 14.424142 26.674775 -8.94575 -20.555333 -25.103887 0.003744 0.0 0.00281 0.003744 0.0 0.00281 -6.043182 25.598979 7.235045 54.440281 25.706818 21.777767 153.159855 15.284657 107.282087 171.044883 -4.577017 147.12236 -171.705202 -9.388775 89.948954 -77.806974 5.732738 25.836177 -132.541819 13.160874 110.91522 -0.720361 16.160571 -5.244868 89.034808 -81.393668 59.758509 86.344404 -78.157842 57.808172 0.005398 0.917705 0.288807 4.018626 42.157371 7.934449 0.551199 1.455877 0.506872 28.267559 75.243471 6.345471 -3.541177 -62.053059 13.039839 64.822133 -39.636183 113.145076 177.983862 20.863549 150.74353 8.823357 38.700995 -3.180089 -4.531411 -4.513879 0.520907 105.675115 11.360501 -95.90561 6.815545 10.181972 -4.246692 159.247219 -8.617652 -110.075691 160.82658 -7.141673 -143.316608 85.916188 63.860157 -77.759148 145.121252 1.974795 179.748141 149.766161 -38.009216 172.221479 144.10956 8.78138 140.875382 -10.928756 24.740284 -3.788039 0.000255 -0.000383 6.4e-05 -11.490389 8.078554 -61.135583 -41.407743 18.177729 50.715881 156.567904 -20.201658 21.516133 -0.0 -0.000383 -0.000135 64.059448 -44.819945 56.332704 43.019182 80.455664 52.998003 -63.234422 -65.646041 -163.991472
-0.8583000000000001 59.135400000000004 1.1423 -41.128517 -71.302816 33.074655 13.304451 18.498379 0.0 0.041948 -8.224302 18.96329 -11.136352 26.101056 -89.772012 34.592215 14.821021 90.733474 -0.003588 -0.0 0.001349 -0.003588 -0.0 0.001349 4.143582 -54.972499 -10.969465 -83.775157 -41.556468 -114.361353 -176.684123 4.86627 -132.826358 -8.690685 37.182299 2.905951 -12.92624 12.05152 3.310612 -37.122104 21.603751 38.189307 -108.42731 34.16073 91.742878 168.548648 -49.007485 107.079978 -160.937254 -7.48819 143.367896 -166.612269 -14.844044 143.727632 -145.111616 -0.627235 -178.931346 -154.10535 -12.521138 -177.505625 -1.150648 -2.91425 -1.065413 -21.325506 -39.035341 -22.167126 83.674235 68.269693 -86.806178 93.007432 13.870059 -86.223963 117.050785 -38.636542 138.815102 -17.781885 -33.864951 -11.024339 85.829823 38.630623 -47.95511 94.501459 -6.058197 -67.49331 -25.697772 -44.692004 5.230858 0.276931 22.194093 -3.591087 151.475483 17.840659 -137.536385 153.873891 19.910235 -138.360119 0.02175 -1.725124 0.542666 -7.063741 29.666779 -4.663546 26.564612 -38.860879 25.605713 146.683884 11.912606 143.427852 -0.0 -0.001654 -0.000373 -11.427046 7.696316 -92.137289 -56.799248 0.251887 -90.786342 -103.600514 46.295862 -150.754396 -8.6e-05 -0.000214 0.000111 66.618156 -46.073611 -107.296648 -70.94239 -80.503611 -18.851644 88.944274 -34.799776 177.852903
-0.9851000000000001 59.025099999999995 1.2534999999999998 -41.917297 -71.052456 34.267069 11.461039 14.744293 113.948147 -5.235978 -0.145302 -94.577941 9.283914 19.499586 74.097906 -28.708915 -2.040896 -72.157332 -0.003034 -0.0 0.002702 0.00264 0.0 0.002152 2.45972 -18.216307 -3.669784 56.347691 -2.287705 -18.516942 -178.800139 -28.359664 95.012369 159.620384 -32.973752 140.391873 -176.498938 -14.116451 89.70028 -54.091703 -8.31756 9.575662 24.074629 -42.306823 -5.559593 21.026624 -8.183845 -3.446344 -158.522609 -0.191963 142.145326 -1.374962 12.598566 2.557694 -73.032442 -72.14239 -90.06079 5.407997 -62.299588 -18.988562 -125.809888 -27.877778 -123.551311 -127.514197 -27.958972 -125.794898 3.767408 17.921045 -4.641087 102.767307 -10.949681 -151.396776 178.108518 9.622354 152.026114 8.872477 39.779364 -3.385241 -114.538525 -50.245199 -55.721818 16.094942 -57.253609 31.362001 -88.792588 -75.498354 -40.049083 -17.341534 -1.100276 6.350648 161.152668 -8.160727 -143.465338 -3.429292 -0.619143 -0.280077 145.112561 -0.667991 178.917179 -11.97225 29.420638 5.66211 20.94534 -34.152547 20.099558 -4.295411 3.264097 -0.73946 -179.987101 75.747235 -0.011381 112.907957 76.840606 66.296161 14.058531 48.963646 97.659235 -105.990306 -24.253505 -170.418851 179.976544 75.75019 0.019299 -140.566092 6.765429 -4.608356 59.713208 84.825709 82.006919 -116.635466 -18.198134 156.753792
